<svg xmlns="http://www.w3.org/2000/svg" width="256" height="256" viewBox="0 0 100 100"><rect width="100" height="100" rx="20" fill="#104288"></rect><path fill="#4dc1ff" d="M26.41 74.85L26.41 74.85Q22 74.85 18.71 73.77Q15.42 72.68 13.18 70.86Q10.94 69.04 9.78 66.84Q8.63 64.63 8.56 62.39L8.56 62.39Q8.56 61.76 8.98 61.38Q9.40 60.99 10.03 60.99L10.03 60.99L13.46 60.99Q14.09 60.99 14.61 61.31Q15.14 61.62 15.42 62.53L15.42 62.53Q16.12 65.05 17.83 66.45Q19.55 67.85 21.82 68.38Q24.10 68.90 26.41 68.90L26.41 68.90Q31.24 68.90 34.25 66.59Q37.26 64.28 37.26 59.80L37.26 59.80Q37.26 55.25 34.53 53.29Q31.80 51.33 26.97 51.33L26.97 51.33L20.32 51.33Q19.62 51.33 19.16 50.91Q18.71 50.49 18.71 49.72L18.71 49.72L18.71 47.83Q18.71 47.20 18.95 46.75Q19.20 46.29 19.48 45.94L19.48 45.94L33.06 31.10L12.41 31.10Q11.71 31.10 11.25 30.68Q10.80 30.26 10.80 29.49L10.80 29.49L10.80 26.83Q10.80 26.06 11.25 25.61Q11.71 25.15 12.41 25.15L12.41 25.15L40.34 25.15Q41.11 25.15 41.56 25.61Q42.02 26.06 42.02 26.83L42.02 26.83L42.02 29.35Q42.02 29.84 41.77 30.23Q41.53 30.61 41.25 30.96L41.25 30.96L27.74 46.01L28.86 46.08Q33.48 46.22 36.95 47.76Q40.41 49.30 42.34 52.34Q44.26 55.39 44.26 60.01L44.26 60.01Q44.26 64.70 41.95 67.99Q39.64 71.28 35.61 73.07Q31.59 74.85 26.41 74.85ZM71.56 74.15L55.32 74.15Q54.55 74.15 54.13 73.70Q53.71 73.24 53.71 72.54L53.71 72.54L53.71 26.83Q53.71 26.06 54.13 25.61Q54.55 25.15 55.32 25.15L55.32 25.15L71.21 25.15Q78.42 25.15 82.83 27.32Q87.24 29.49 89.27 33.73Q91.30 37.96 91.37 44.12L91.37 44.12Q91.44 47.27 91.44 49.65Q91.44 52.03 91.37 55.11L91.37 55.11Q91.23 61.55 89.24 65.79Q87.24 70.02 82.94 72.09Q78.63 74.15 71.56 74.15L71.56 74.15ZM60.57 31.10L60.57 68.20L71.21 68.20Q76.04 68.20 78.91 66.87Q81.78 65.54 83.08 62.60Q84.37 59.66 84.44 54.83L84.44 54.83Q84.58 52.73 84.58 51.16Q84.58 49.58 84.58 48.01Q84.58 46.43 84.44 44.40L84.44 44.40Q84.30 37.61 81.22 34.36Q78.14 31.10 70.86 31.10L70.86 31.10L60.57 31.10Z"></path></svg>